<?xml version="1.0" encoding="utf-8"?>
<!-- Generator: Adobe Illustrator 16.0.0, SVG Export Plug-In . SVG Version: 6.00 Build 0)  -->
<!DOCTYPE svg PUBLIC "-//W3C//DTD SVG 1.1//EN" "http://www.w3.org/Graphics/SVG/1.1/DTD/svg11.dtd">
<svg version="1.1" id="Layer_1" xmlns="http://www.w3.org/2000/svg" xmlns:xlink="http://www.w3.org/1999/xlink" x="0px" y="0px"
	 width="22px" height="22px" viewBox="0 0 22 22" enable-background="new 0 0 22 22" xml:space="preserve">
<g>
	<g>
		<path fill="#6CBF67" d="M10.964,0C4.908,0,0,4.908,0,10.963c0,6.055,4.908,10.963,10.963,10.963s10.963-4.908,10.963-10.963
			C21.927,4.908,17.02,0,10.964,0z M10.964,20.83c-5.449,0-9.867-4.417-9.867-9.867c0-5.449,4.417-9.867,9.867-9.867
			s9.867,4.417,9.867,9.867C20.831,16.413,16.413,20.83,10.964,20.83z"/>
	</g>
</g>
<g>
	<g>
		<path fill="#6CBF67" d="M16.445,10.415h-4.933V5.481c0-0.303-0.245-0.548-0.548-0.548s-0.548,0.245-0.548,0.548v4.934H5.482
			c-0.303,0-0.548,0.245-0.548,0.548s0.245,0.548,0.548,0.548h4.933v4.934c0,0.303,0.245,0.547,0.548,0.547s0.548-0.244,0.548-0.547
			v-4.934h4.933c0.304,0,0.548-0.245,0.548-0.548S16.749,10.415,16.445,10.415z"/>
	</g>
</g>
</svg>
