<?xml version="1.0" encoding="UTF-8" standalone="no"?>
<svg width="57px" height="28px" viewBox="0 0 57 28" version="1.1" xmlns="http://www.w3.org/2000/svg" xmlns:xlink="http://www.w3.org/1999/xlink">
    <!-- Generator: Sketch 42 (36781) - http://www.bohemiancoding.com/sketch -->
    <title>devices media cloud download</title>
    <desc>Created with Sketch.</desc>
    <defs></defs>
    <g id="Single-Listing" stroke="none" stroke-width="1" fill="none" fill-rule="evenodd">
        <g id="Muzbnb-ListingProcess3" transform="translate(-578.000000, -2146.000000)" fill-rule="nonzero" fill="#FFFFFF">
            <g id="Group-Copy" transform="translate(516.271633, 2136.000000)">
                <g id="devices-media-cloud-download" transform="translate(62.656632, 10.000000)">
                    <path d="M27.6114395,2.41992324 C35.2243079,2.41992324 41.4171593,7.14471389 41.4171593,12.9228018 L41.4072981,13.0401692 L41.4072981,13.0853105 L41.3757421,14.9526561 L43.7739929,14.579488 C44.2946658,14.4982336 44.8271721,14.4576064 45.3616507,14.4576064 C49.7124246,14.4576064 53.2506334,17.1570569 53.2506334,20.476448 C53.2506334,23.7958391 49.7124246,26.4952896 45.3616507,26.4952896 L11.8334741,26.4952896 C6.39599274,26.4952896 1.97224568,23.1202242 1.97224568,18.9717376 C1.97224568,14.8232511 6.39599274,11.4481856 11.8334741,11.4481856 C11.8965859,11.4481856 11.9577256,11.4526998 12.0188652,11.4557092 L12.2594792,11.4662422 L13.8569982,11.518907 L14.2534195,10.3362046 C15.8193826,5.67461183 21.3120868,2.41992324 27.6114395,2.41992324 L27.6114395,2.41992324 Z M27.6114395,0.915212847 C20.2529909,0.915212847 14.0897231,4.76426204 12.3442857,9.96303647 C12.1727003,9.95701762 12.0050595,9.94347523 11.8334741,9.94347523 C5.2974519,9.94347523 0,13.9851274 0,18.9717376 C0,23.9583479 5.2974519,28 11.8334741,28 L45.3616507,28 C50.807021,28 55.2228791,24.6309534 55.2228791,20.476448 C55.2228791,16.3219426 50.807021,12.952896 45.3616507,12.952896 C44.6831981,12.952896 44.0205236,13.0055609 43.3795438,13.1048718 C43.3795438,13.0537116 43.389405,13.0040562 43.389405,12.952896 C43.389405,6.30508549 36.324821,0.915212847 27.6114395,0.915212847 Z" id="Shape"></path>
                    <polyline id="Shape" points="34.1060446 14.0167263 28.5975624 9.81407014 28.5975624 21.9811584 26.6253167 21.9811584 26.6253167 9.81407014 21.1168345 14.0167263 19.7224568 12.952896 27.6114395 6.93405444 35.5004223 12.952896"></polyline>
                </g>
            </g>
        </g>
    </g>
</svg>