<?xml version="1.0" encoding="UTF-8" standalone="no"?>
<svg width="23px" height="21px" viewBox="0 0 23 21" version="1.1" xmlns="http://www.w3.org/2000/svg" xmlns:xlink="http://www.w3.org/1999/xlink">
    <!-- Generator: Sketch 46.2 (44496) - http://www.bohemiancoding.com/sketch -->
    <title>calendar and clock 1</title>
    <desc>Created with Sketch.</desc>
    <defs></defs>
    <g id="ambassador" stroke="none" stroke-width="1" fill="none" fill-rule="evenodd">
        <g id="Muzbnb---Ambassador-Page" transform="translate(-1143.000000, -1064.000000)">
            <g id="calendar-and-clock-1" transform="translate(1144.000000, 1065.000000)">
                <path d="M19.3846154,19 L1.61538462,19 C0.726923077,19 0,18.2875 0,17.4166667 L0,3.16666667 C0,2.29583333 0.726923077,1.58333333 1.61538462,1.58333333 L19.3846154,1.58333333 C20.2730769,1.58333333 21,2.29583333 21,3.16666667 L21,17.4166667 C21,18.2875 20.2730769,19 19.3846154,19 Z" id="XMLID_728_" stroke="#FFFFFF" stroke-width="1.6" stroke-linecap="round" stroke-linejoin="round"></path>
                <path d="M0,6.33333333 L21,6.33333333" id="XMLID_729_" stroke="#FFFFFF" stroke-width="1.6" stroke-linecap="round" stroke-linejoin="round"></path>
                <path d="M4.84615385,3.95833333 L4.84615385,0" id="XMLID_753_" stroke="#FFFFFF" stroke-width="1.6" stroke-linecap="round" stroke-linejoin="round"></path>
                <path d="M16.1538462,3.95833333 L16.1538462,0" id="XMLID_754_" stroke="#FFFFFF" stroke-width="1.6" stroke-linecap="round" stroke-linejoin="round"></path>
                <g id="XMLID_755_" transform="translate(3.230769, 8.708333)" fill-rule="nonzero" fill="#FFFFFF">
                    <rect id="XMLID_757_" x="3.23076923" y="0" width="1.61538462" height="1.58333333"></rect>
                    <rect id="XMLID_758_" x="6.46153846" y="0" width="1.61538462" height="1.58333333"></rect>
                    <rect id="XMLID_759_" x="9.69230769" y="0" width="1.61538462" height="1.58333333"></rect>
                    <rect id="XMLID_760_" x="12.9230769" y="0" width="1.61538462" height="1.58333333"></rect>
                    <rect id="XMLID_1408_" x="0" y="3.16666667" width="1.61538462" height="1.58333333"></rect>
                    <rect id="XMLID_1407_" x="3.23076923" y="3.16666667" width="1.61538462" height="1.58333333"></rect>
                    <rect id="XMLID_1406_" x="6.46153846" y="3.16666667" width="1.61538462" height="1.58333333"></rect>
                    <rect id="XMLID_1405_" x="9.69230769" y="3.16666667" width="1.61538462" height="1.58333333"></rect>
                    <rect id="XMLID_1404_" x="12.9230769" y="3.16666667" width="1.61538462" height="1.58333333"></rect>
                    <rect id="XMLID_1415_" x="0" y="6.33333333" width="1.61538462" height="1.58333333"></rect>
                    <rect id="XMLID_1414_" x="3.23076923" y="6.33333333" width="1.61538462" height="1.58333333"></rect>
                    <rect id="XMLID_1413_" x="6.46153846" y="6.33333333" width="1.61538462" height="1.58333333"></rect>
                    <rect id="XMLID_1412_" x="9.69230769" y="6.33333333" width="1.61538462" height="1.58333333"></rect>
                </g>
            </g>
        </g>
    </g>
</svg>