<?xml version="1.0" encoding="UTF-8" standalone="no"?>
<svg width="70px" height="39px" viewBox="0 0 70 39" version="1.1" xmlns="http://www.w3.org/2000/svg" xmlns:xlink="http://www.w3.org/1999/xlink">
    <!-- Generator: Sketch 46.2 (44496) - http://www.bohemiancoding.com/sketch -->
    <title>Google Plus Button</title>
    <desc>Created with Sketch.</desc>
    <defs></defs>
    <g id="Success" stroke="none" stroke-width="1" fill="none" fill-rule="evenodd">
        <g id="Muzbnb---Listing-Success" transform="translate(-544.000000, -713.000000)">
            <g id="Group-7" transform="translate(135.000000, 169.000000)">
                <g id="social-sharing" transform="translate(80.000000, 544.000000)">
                    <g id="Google-Plus-Button" transform="translate(329.500000, 0.000000)">
                        <rect id="Rectangle-19" fill="#BD4C3A" x="0" y="0" width="69" height="39" rx="4.5"></rect>
                        <path d="M22.5,27.0288462 C22.5,26.2499961 22.7181351,25.5288495 23.1544118,24.8653846 C23.5906885,24.2019198 24.171565,23.6490407 24.8970588,23.2067308 C26.181379,22.4182653 28.1617513,21.9375009 30.8382353,21.7644231 C30.5245082,21.3605749 30.2916674,21.0048092 30.1397059,20.6971154 C29.9877443,20.3894215 29.9117647,20.0384635 29.9117647,19.6442308 C29.9117647,19.2980752 30.0147049,18.8894254 30.2205882,18.4182692 C29.7696056,18.456731 29.4362756,18.4759615 29.2205882,18.4759615 C27.7696006,18.4759615 26.5465736,18.0120239 25.5514706,17.0841346 C24.5563676,16.1562454 24.0588235,14.9807763 24.0588235,13.5576923 C24.0588235,12.7692268 24.2352924,12.0048114 24.5882353,11.2644231 C24.9411782,10.5240348 25.4264675,9.89423337 26.0441176,9.375 C26.7990234,8.74038144 27.6936223,8.26923231 28.7279412,7.96153846 C29.7622601,7.65384462 30.8284259,7.5 31.9264706,7.5 L38.0735294,7.5 L36.0441176,8.76923077 L34.1176471,8.76923077 C34.8431409,9.37500303 35.392155,10.0144197 35.7647059,10.6875 C36.1372568,11.3605803 36.3235294,12.1298034 36.3235294,12.9951923 C36.3235294,13.6875035 36.2034326,14.3100934 35.9632353,14.8629808 C35.723038,15.4158681 35.4338252,15.8629791 35.0955882,16.2043269 C34.7573513,16.5456748 34.4166684,16.8581717 34.0735294,17.1418269 C33.7303904,17.4254822 33.4387267,17.7211523 33.1985294,18.0288462 C32.9583321,18.33654 32.8382353,18.6538445 32.8382353,18.9807692 C32.8382353,19.3269248 32.9950965,19.6658637 33.3088235,19.9975962 C33.6225506,20.3293286 34.0024488,20.6562484 34.4485294,20.9783654 C34.8946101,21.3004824 35.3382331,21.6538442 35.7794118,22.0384615 C36.2205904,22.4230788 36.5980376,22.9230738 36.9117647,23.5384615 C37.2254918,24.1538492 37.3823529,24.8365347 37.3823529,25.5865385 C37.3823529,26.4519274 37.1470612,27.2836499 36.6764706,28.0817308 C35.9705847,29.2548136 34.9362813,30.1177857 33.5735294,30.6706731 C32.2107775,31.2235605 30.7500078,31.5 29.1911765,31.5 C27.8970524,31.5 26.6887311,31.3004828 25.5661765,30.9014423 C24.4436218,30.5024019 23.602944,29.8413508 23.0441176,28.9182692 C22.6813707,28.3413433 22.5,27.7115419 22.5,27.0288462 Z M25.2352941,26.3653846 C25.2352941,27.0384649 25.406861,27.632209 25.75,28.1466346 C26.093139,28.6610603 26.5416639,29.0600947 27.0955882,29.34375 C27.6495126,29.6274053 28.2328401,29.8389416 28.8455882,29.9783654 C29.4583364,30.1177892 30.0833301,30.1875 30.7205882,30.1875 C31.2892185,30.1875 31.8357817,30.1250006 32.3602941,30 C32.8848065,29.8749994 33.3700958,29.6875012 33.8161765,29.4375 C34.2622571,29.1874987 34.6200967,28.8365407 34.8897059,28.3846154 C35.1593151,27.93269 35.2941176,27.4086568 35.2941176,26.8125 C35.2941176,26.5721142 35.2598043,26.3365396 35.1911765,26.1057692 C35.1225487,25.8749988 35.051471,25.6730778 34.9779412,25.5 C34.9044114,25.3269222 34.7720598,25.127405 34.5808824,24.9014423 C34.3897049,24.6754796 34.2450985,24.5072121 34.1470588,24.3966346 C34.0490191,24.2860571 33.8602955,24.1201934 33.5808824,23.8990385 C33.3014692,23.6778835 33.1225494,23.5384618 33.0441176,23.4807692 C32.9656859,23.4230766 32.7622565,23.2788473 32.4338235,23.0480769 C32.1053905,22.8173065 31.9264707,22.6923078 31.8970588,22.6730769 C31.7401953,22.6538461 31.5049035,22.6442308 31.1911765,22.6442308 C30.671566,22.6442308 30.1568653,22.6778843 29.6470588,22.7451923 C29.1372524,22.8125003 28.6102968,22.9326914 28.0661765,23.1057692 C27.5220561,23.278847 27.0465707,23.4999987 26.6397059,23.7692308 C26.2328411,24.0384629 25.8970601,24.3966324 25.6323529,24.84375 C25.3676457,25.2908676 25.2352941,25.7980741 25.2352941,26.3653846 Z M26.7941176,12.0288462 C26.7941176,12.4711561 26.8431368,12.9399014 26.9411765,13.4350962 C27.0392162,13.9302909 27.1936264,14.4254783 27.4044118,14.9206731 C27.6151971,15.4158679 27.8700965,15.860575 28.1691176,16.2548077 C28.4681388,16.6490404 28.8357821,16.9711526 29.2720588,17.2211538 C29.7083355,17.4711551 30.18137,17.5961538 30.6911765,17.5961538 C31.0637274,17.5961538 31.4460765,17.5168277 31.8382353,17.3581731 C32.2303941,17.1995184 32.5539203,16.9903859 32.8088235,16.7307692 C33.328434,16.1826896 33.5882353,15.4182741 33.5882353,14.4375 C33.5882353,13.8798049 33.5049028,13.2788494 33.3382353,12.6346154 C33.1715678,11.9903814 32.9338251,11.3677915 32.625,10.7668269 C32.3161749,10.1658624 31.9019634,9.6682712 31.3823529,9.27403846 C30.8627425,8.87980572 30.2892188,8.68269231 29.6617647,8.68269231 C29.2499979,8.68269231 28.8455902,8.77644137 28.4485294,8.96394231 C28.0514686,9.15144325 27.7303934,9.40384457 27.4852941,9.72115385 C27.0245075,10.2884644 26.7941176,11.0576875 26.7941176,12.0288462 Z M37.9705882,19.1105769 L37.9705882,17.5528846 L41.0882353,17.5528846 L41.0882353,14.4230769 L42.6323529,14.4230769 L42.6323529,17.5528846 L45.7647059,17.5528846 L45.7647059,19.1105769 L42.6323529,19.1105769 L42.6323529,22.2692308 L41.0882353,22.2692308 L41.0882353,19.1105769 L37.9705882,19.1105769 Z" id="icon" fill="#FFFFFF"></path>
                    </g>
                </g>
            </g>
        </g>
    </g>
</svg>