<?xml version="1.0" encoding="UTF-8" standalone="no"?>
<svg width="139px" height="130px" viewBox="0 0 139 130" version="1.1" xmlns="http://www.w3.org/2000/svg" xmlns:xlink="http://www.w3.org/1999/xlink">
    <!-- Generator: Sketch 46.2 (44496) - http://www.bohemiancoding.com/sketch -->
    <title>house-icon</title>
    <desc>Created with Sketch.</desc>
    <defs></defs>
    <g id="Success" stroke="none" stroke-width="1" fill="none" fill-rule="evenodd">
        <g id="Muzbnb---Listing-Success" transform="translate(-214.000000, -406.000000)" stroke="#000000" stroke-width="4">
            <g id="Group-7" transform="translate(135.000000, 169.000000)">
                <g id="house-icon" transform="translate(79.000000, 239.000000)">
                    <polyline id="Shape" points="98 106.534884 98 126 11 126 11 33"></polyline>
                    <path d="M98,33 L98,50" id="Shape"></path>
                    <polygon id="Shape" stroke-linecap="round" stroke-linejoin="round" points="106 37 54 10.8823529 2 37 2 26.1176471 54 0 106 26.1176471"></polygon>
                    <circle id="Oval" cx="54" cy="44" r="11"></circle>
                    <rect id="Rectangle-path" x="30" y="69" width="48" height="9"></rect>
                    <path d="M35,124 L35,78" id="Shape"></path>
                    <path d="M74,78 L74,124" id="Shape"></path>
                    <polyline id="Shape" points="29 12.75 29 0 20 0 20 17"></polyline>
                    <path d="M11,126 L0,126" id="Shape"></path>
                    <path d="M139,126 L98,126" id="Shape"></path>
                    <path d="M67,102 L63,102" id="Shape"></path>
                    <path d="M113,125 L113,69" id="Shape"></path>
                    <circle id="Oval" cx="113" cy="78" r="24"></circle>
                    <path d="M113,85 L100,72" id="Shape"></path>
                    <path d="M113,93 L126,80" id="Shape"></path>
                </g>
            </g>
        </g>
    </g>
</svg>