<?xml version="1.0" encoding="UTF-8" standalone="no"?>
<svg width="69px" height="39px" viewBox="0 0 69 39" version="1.1" xmlns="http://www.w3.org/2000/svg" xmlns:xlink="http://www.w3.org/1999/xlink">
    <!-- Generator: Sketch 46.2 (44496) - http://www.bohemiancoding.com/sketch -->
    <title>linkedin</title>
    <desc>Created with Sketch.</desc>
    <defs></defs>
    <g id="Success" stroke="none" stroke-width="1" fill="none" fill-rule="evenodd">
        <g id="Muzbnb---Listing-Success" transform="translate(-627.000000, -713.000000)">
            <g id="Group-7" transform="translate(135.000000, 169.000000)">
                <g id="social-sharing" transform="translate(80.000000, 544.000000)">
                    <g id="linkedin" transform="translate(412.000000, 0.000000)">
                        <rect id="Rectangle-25" fill="#007BB5" x="0" y="0" width="69" height="39" rx="4.5"></rect>
                        <g id="square-linkedin" transform="translate(19.000000, 4.000000)" fill-rule="nonzero">
                            <path d="M32,30 C32,31.104 31.104,32 30,32 L2,32 C0.896,32 0,31.104 0,30 L0,2 C0,0.896 0.896,0 2,0 L30,0 C31.104,0 32,0.896 32,2 L32,30 Z" id="Shape" fill="#007BB5"></path>
                            <g id="Group" transform="translate(7.000000, 6.000000)" fill="#FFFFFF">
                                <rect id="Rectangle-path" x="0" y="5" width="4" height="14"></rect>
                                <path d="M13.499,5 C10.708,5 10.228,6.018 10,7 L10,5 L6,5 L6,19 L10,19 L10,11 C10,9.703 10.703,9 12,9 C13.266,9 14,9.688 14,11 L14,19 L18,19 L18,12 C18,8 17.479,5 13.499,5 Z" id="Shape"></path>
                                <circle id="Oval" cx="2" cy="2" r="2"></circle>
                            </g>
                        </g>
                    </g>
                </g>
            </g>
        </g>
    </g>
</svg>