<?xml version="1.0" encoding="UTF-8" standalone="no"?>
<svg width="69px" height="39px" viewBox="0 0 69 39" version="1.1" xmlns="http://www.w3.org/2000/svg" xmlns:xlink="http://www.w3.org/1999/xlink">
    <!-- Generator: Sketch 46.2 (44496) - http://www.bohemiancoding.com/sketch -->
    <title>Facebook ALT Fly-Out</title>
    <desc>Created with Sketch.</desc>
    <defs></defs>
    <g id="Success" stroke="none" stroke-width="1" fill="none" fill-rule="evenodd">
        <g id="Muzbnb---Listing-Success" transform="translate(-378.000000, -713.000000)">
            <g id="Group-7" transform="translate(135.000000, 169.000000)">
                <g id="social-sharing" transform="translate(80.000000, 544.000000)">
                    <g id="Facebook-ALT-Fly-Out" transform="translate(163.000000, 0.000000)">
                        <rect id="Rectangle-20" fill="#3C5A96" x="0" y="0" width="69" height="39" rx="4.5"></rect>
                        <g id="square-facebook" transform="translate(28.000000, 6.000000)" fill-rule="nonzero" fill="#FFFFFF">
                            <path d="M9,27 L9,15 L13,15 L14,10 L9,10 L9,8 C9,6 10.002,5 12,5 L14,5 L14,0 C13,0 11.76,0 10,0 C6.325,0 4,2.881 4,7 L4,10 L0,10 L0,15 L4,15 L4,27 L9,27 Z" id="f"></path>
                        </g>
                    </g>
                </g>
            </g>
        </g>
    </g>
</svg>