<?xml version="1.0" encoding="UTF-8" standalone="no"?>
<svg width="69px" height="39px" viewBox="0 0 69 39" version="1.1" xmlns="http://www.w3.org/2000/svg" xmlns:xlink="http://www.w3.org/1999/xlink">
    <!-- Generator: Sketch 46.2 (44496) - http://www.bohemiancoding.com/sketch -->
    <title>Twitter Button</title>
    <desc>Created with Sketch.</desc>
    <defs></defs>
    <g id="Success" stroke="none" stroke-width="1" fill="none" fill-rule="evenodd">
        <g id="Muzbnb---Listing-Success" transform="translate(-462.000000, -713.000000)">
            <g id="Group-7" transform="translate(135.000000, 169.000000)">
                <g id="social-sharing" transform="translate(80.000000, 544.000000)">
                    <g id="Twitter-Button" transform="translate(247.000000, 0.000000)">
                        <rect id="Rectangle-17" fill="#FFFFFF" x="0" y="0" width="69" height="39" rx="4.5"></rect>
                        <path d="M49.5,11.8409433 C48.3962621,12.3229159 47.2100243,12.648699 45.9650243,12.7949968 C47.2355825,12.0451581 48.2116748,10.8578597 48.6711408,9.442979 C47.4818447,10.1373378 46.1646845,10.6415311 44.7626942,10.9131962 C43.6400243,9.73564619 42.0404126,9 40.2701214,9 C36.2973058,9 33.3768204,12.6496309 34.2747087,16.439395 C29.1594175,16.1867966 24.6241748,13.7745681 21.588568,10.1090961 C19.9762864,12.8316967 20.7522816,16.3947387 23.4932767,18.198122 C22.4844903,18.1667264 21.5351942,17.8941295 20.705534,17.4401835 C20.6387621,20.2472941 22.6821845,22.8721239 25.6420631,23.4576016 C24.7758495,23.689628 23.8270631,23.7427425 22.8626942,23.5613218 C23.6457524,25.9683177 25.9189078,27.7200201 28.6122087,27.7688338 C26.0245631,29.7650348 22.7654854,30.6566554 19.5,30.2778295 C22.2237379,31.9968461 25.4590049,33 28.9347816,33 C40.3618689,33 46.8179126,23.4988173 46.4287864,14.9772776 C47.6314806,14.1230736 48.6748544,13.0559817 49.5,11.8409433 L49.5,11.8409433 Z" id="twitter-icon" fill="#59ADEB"></path>
                    </g>
                </g>
            </g>
        </g>
    </g>
</svg>