<svg width="26" height="30" viewBox="0 0 26 30" xmlns="http://www.w3.org/2000/svg"><title>apple-icon</title><path d="M14.32 1.92C15.43.934 16.79.27 18.25 0c.1.36.13.738.09 1.11-.07.706-.244 1.397-.52 2.05-.296.713-.708 1.372-1.22 1.95-.522.606-1.15 1.114-1.85 1.5-.76.332-1.58.512-2.41.53 0-1.162.244-2.31.72-3.37.305-.687.732-1.314 1.26-1.85zm1.58 5.17c1.006-.33 2.062-.48 3.12-.44.924.055 1.828.293 2.66.7 1.01.547 1.894 1.296 2.6 2.2-.562.454-1.09.95-1.58 1.48-1.655 1.817-2.125 4.42-1.21 6.7.315.783.76 1.507 1.32 2.14.616.727 1.423 1.268 2.33 1.56-.56 1.654-1.357 3.218-2.37 4.64-.662 1.005-1.502 1.88-2.48 2.58-.644.448-1.416.675-2.2.65-.915-.112-1.813-.34-2.67-.68-.84-.304-1.727-.456-2.62-.45-.89.084-1.763.314-2.58.68-.703.31-1.46.478-2.23.49-.676-.013-1.335-.218-1.9-.59-.694-.45-1.31-1.006-1.83-1.65-.566-.693-1.078-1.428-1.53-2.2-.876-1.457-1.57-3.015-2.07-4.64-.396-1.325-.614-2.697-.65-4.08-.074-1.783.265-3.56.99-5.19.61-1.34 1.59-2.48 2.82-3.29 1.09-.67 2.36-.992 3.64-.92.81.055 1.614.186 2.4.39.86.267 1.734.48 2.62.64.466.054.938.017 1.39-.11.69-.16 1.36-.4 2.03-.61z" fill="#4D4D4D" fill-rule="evenodd"/></svg>