<?xml version="1.0" encoding="UTF-8" standalone="no"?>
<svg width="27px" height="40px" viewBox="0 0 27 40" version="1.1" xmlns="http://www.w3.org/2000/svg" xmlns:xlink="http://www.w3.org/1999/xlink">
    <!-- Generator: Sketch 42 (36781) - http://www.bohemiancoding.com/sketch -->
    <title>bedrooms-icon</title>
    <desc>Created with Sketch.</desc>
    <defs></defs>
    <g id="Single-Listing" stroke="none" stroke-width="1" fill="none" fill-rule="evenodd" opacity="0.300000012">
        <g id="Muzbnb-SingleListing-1.1" transform="translate(-709.000000, -620.000000)" fill="#000000">
            <g id="listing-header" transform="translate(133.000000, 545.000000)">
                <g id="listing-characteristics" transform="translate(221.000000, 75.000000)">
                    <g id="1-bedroom" transform="translate(316.000000, 0.000000)">
                        <g id="bedrooms-icon" transform="translate(39.000000, 0.000000)">
                            <g id="door-in">
                                <g id="Interface" fill-rule="nonzero">
                                    <g>
                                        <g id="Icon-9">
                                            <path d="M8.66666667,17.3294 C8.298,17.3294 8,17.6280667 8,17.9960667 L8,21.9960667 C8,22.3640667 8.298,22.6627333 8.66666667,22.6627333 C9.03533333,22.6627333 9.33333333,22.3640667 9.33333333,21.9960667 L9.33333333,17.9960667 C9.33333333,17.6280667 9.03533333,17.3294 8.66666667,17.3294 L8.66666667,17.3294 Z M10.6666667,2.66273333 C10.6666667,1.8674 10.2726667,1.3334 9.68666667,1.3334 C9.54066667,1.3334 9.384,1.36473333 9.22133333,1.42606667 L2.914,3.94873333 C1.64066667,4.42073333 1.33333333,4.8214 1.33333333,5.99606667 L1.33333333,34.0020667 C1.33333333,35.1767333 1.64066667,35.5780667 2.89866667,36.0440667 L9.234,38.5794 C9.384,38.6354 9.54133333,38.6667333 9.68666667,38.6667333 C10.2726667,38.6667333 10.6666667,38.1320667 10.6666667,37.3367333 L10.6666667,2.66273333 Z M12,2.66273333 L12,37.3367333 C12,38.8800667 11.0273333,40.0000667 9.68666667,40.0000667 C9.37933333,40.0000667 9.06466667,39.9400667 8.75133333,39.8214 L2.41933333,37.2880667 C0.66,36.6360667 0,35.7440667 0,34.0020667 L0,5.99606667 C0,4.25406667 0.66,3.36206667 2.43466667,2.70473333 L8.73866667,0.182733333 C10.488,-0.475266667 12,0.766066667 12,2.66273333 L12,2.66273333 Z M23.3333333,3.99606667 C24.436,3.99606667 25.3333333,4.8934 25.3333333,5.99606667 L25.3333333,27 C25.3333333,27.368 25.6313333,27.6666667 26,27.6666667 C26.3686667,27.6666667 26.6666667,27.368 26.6666667,27 L26.6666667,5.99606667 C26.6666667,4.15806667 25.1713333,2.66273333 23.3333333,2.66273333 L13.9166667,2.66273333 C13.548,2.66273333 13.25,2.9614 13.25,3.3294 C13.25,3.6974 13.548,3.99606667 13.9166667,3.99606667 L23.3333333,3.99606667 Z M25.3333333,23.9960667 L25.3333333,33.9960667 C25.3333333,35.0987333 24.436,35.9960667 23.3333333,35.9960667 L14,35.9960667 C13.6313333,35.9960667 13.3333333,36.2947333 13.3333333,36.6627333 C13.3333333,37.0307333 13.6313333,37.3294 14,37.3294 L23.3333333,37.3294 C25.1713333,37.3294 26.6666667,35.8340667 26.6666667,33.9960667 L26.6666667,23.9960667 C26.6666667,23.6280667 26.3686667,23.3294 26,23.3294 C25.6313333,23.3294 25.3333333,23.6280667 25.3333333,23.9960667 Z" id="door-in"></path>
                                        </g>
                                    </g>
                                </g>
                            </g>
                        </g>
                    </g>
                </g>
            </g>
        </g>
    </g>
</svg>