<?xml version="1.0" encoding="UTF-8" standalone="no"?>
<svg width="63px" height="32px" viewBox="0 0 63 32" version="1.1" xmlns="http://www.w3.org/2000/svg" xmlns:xlink="http://www.w3.org/1999/xlink">
    <!-- Generator: Sketch 42 (36781) - http://www.bohemiancoding.com/sketch -->
    <title>guests-icon</title>
    <desc>Created with Sketch.</desc>
    <defs></defs>
    <g id="Single-Listing" stroke="none" stroke-width="1" fill="none" fill-rule="evenodd" opacity="0.300000012">
        <g id="Muzbnb-SingleListing-1.1" transform="translate(-541.000000, -626.000000)" stroke="#263238">
            <g id="listing-header" transform="translate(133.000000, 545.000000)">
                <g id="listing-characteristics" transform="translate(221.000000, 75.000000)">
                    <g id="4-guests" transform="translate(174.000000, 7.000000)">
                        <g id="guests-icon" transform="translate(14.000000, 0.000000)">
                            <g id="23-web-seo-internet-comments-users-copy">
                                <g id="23-web-seo-internet-comments-users" stroke-width="1.5">
                                    <g id="15.Web-&amp;-SEO">
                                        <g id="Web-&amp;-seo-(Stroke)">
                                            <g id="23-web-seo-internet-comments-users">
                                                <path d="M7.04306459,12.1242837 C6.82060985,12.2649938 6.40153635,13.1481873 6.5911293,13.923091 C6.87309002,15.0755198 7.87601699,15.5252984 7.87601699,15.5252984 C7.87601699,15.5252984 9.4450422,17.6533698 9.4450422,18.8909603 C9.4450422,20.1285509 9.4450422,20.6093594 9.02456745,21.6418292 C8.6040927,22.6742989 0.350398348,23.9119528 0,29.9986709 L12.0132601,29.9986709 L24.1584158,30 C23.8080175,23.9132819 15.5543231,22.675628 15.1338484,21.6431583 C14.7133736,20.6106886 14.7133736,20.1298801 14.7133736,18.8922895 C14.7133736,17.6546989 16.2823988,15.5266276 16.2823988,15.5266276 C16.2823988,15.5266276 17.2853258,15.0768489 17.5672865,13.9244201 C17.7568795,13.1495164 17.337806,12.266323 17.1153513,12.1256128 C17.7099759,10.26186 18.8975692,3.83661762 12.1451557,3.60503964 C12.1151404,3.6006615 12.08528,3.601443 12.0555721,3.60234372 C5.26084662,3.8352885 6.44843991,10.2605309 7.04306459,12.1242837 Z" id="Layer-5"></path>
                                                <path d="M43.8846487,12.1242837 C43.662194,12.2649938 43.2431205,13.1481873 43.4327135,13.923091 C43.7146742,15.0755198 44.7176012,15.5252984 44.7176012,15.5252984 C44.7176012,15.5252984 46.2866264,17.6533698 46.2866264,18.8909603 C46.2866264,20.1285509 46.2866264,20.6093594 45.8661516,21.6418292 C45.4456769,22.6742989 37.1919825,23.9119528 36.8415842,29.9986709 L61,30 C60.6496015,23.9132819 52.3959073,22.675628 51.9754325,21.6431583 C51.5549578,20.6106886 51.5549578,20.1298801 51.5549578,18.8922895 C51.5549578,17.6546989 53.123983,15.5266276 53.123983,15.5266276 C53.123983,15.5266276 54.12691,15.0768489 54.4088707,13.9244201 C54.5984637,13.1495164 54.1793901,12.266323 53.9569354,12.1256128 C54.5515601,10.26186 55.7391534,3.83661762 48.9867399,3.60503964 C48.9567245,3.6006615 48.9268641,3.601443 48.8971563,3.60234372 C42.1024308,3.8352885 43.2900241,10.2605309 43.8846487,12.1242837 Z" id="Layer-6"></path>
                                                <path d="M40.7510217,24.2614673 C37.8299699,22.0603498 34.0129085,21.236479 33.7108563,20.503589 C33.2273104,19.3303279 33.2273104,18.7839546 33.2273104,17.3776017 C33.2273104,15.9712488 35.0316893,13.5529858 35.0316893,13.5529858 C35.0316893,13.5529858 36.1850554,13.0418738 36.5093102,11.7322955 C36.7273422,10.8517232 36.2454076,9.84809424 35.9895847,9.6881964 C36.6734031,7.57029546 38.0391353,0.26888364 30.2738598,0.00572682 C30.2393421,0.00075174 30.2050027,0.0016398 30.1708386,0.00266328 C22.3569043,0.26737332 23.7226366,7.56878508 24.4064549,9.68668602 C24.150632,9.84658386 23.6686975,10.8502129 23.8867294,11.7307852 C24.2109843,13.0403634 25.3643503,13.5514754 25.3643503,13.5514754 C25.3643503,13.5514754 27.1687292,15.9697384 27.1687292,17.3760913 C27.1687292,18.7824442 27.1687292,19.3288176 26.6851833,20.5020786 C26.3923133,21.2126893 22.7948933,22.0088333 19.9137717,24.0630019 C21.9894384,25.2635233 23.9890594,27.0694527 24.1583288,29.9984896 L30.1221798,29.9984896 L36.8635906,29.9992186 L36.8415842,29.9986709 C37.0011497,27.2268812 38.7996529,25.4606611 40.7510217,24.2614673 L40.7510217,24.2614673 Z" id="Layer-7"></path>
                                            </g>
                                        </g>
                                    </g>
                                </g>
                            </g>
                        </g>
                    </g>
                </g>
            </g>
        </g>
    </g>
</svg>