<?xml version="1.0" encoding="UTF-8" standalone="no"?>
<svg width="11px" height="11px" viewBox="0 0 11 11" version="1.1" xmlns="http://www.w3.org/2000/svg" xmlns:xlink="http://www.w3.org/1999/xlink">
    <!-- Generator: Sketch 42 (36781) - http://www.bohemiancoding.com/sketch -->
    <title>Instagram icon</title>
    <desc>Created with Sketch.</desc>
    <defs></defs>
    <g id="About-Us" stroke="none" stroke-width="1" fill="none" fill-rule="evenodd">
        <g id="Muzbnb-About-Simple-Search" transform="translate(-348.000000, -3360.000000)" fill-rule="nonzero" fill="#242526">
            <g id="hadi" transform="translate(229.000000, 2946.000000)">
                <g id="Social" transform="translate(62.000000, 413.000000)">
                    <g id="Instagram-icon" transform="translate(57.000000, 1.000000)">
                        <path d="M9.625,0 L1.375,0 C0.59846875,0 0,0.59846875 0,1.375 L0,9.625 C0,10.4011875 0.59846875,11 1.375,11 L9.625,11 C10.4011875,11 11,10.4011875 11,9.625 L11,1.375 C11,0.59846875 10.4011875,0 9.625,0 Z M5.50790625,3.3391875 C6.727875,3.3391875 7.7165,4.29721875 7.7165,5.479375 C7.7165,6.66084375 6.727875,7.6195625 5.50790625,7.6195625 C4.28896875,7.6195625 3.3,6.66084375 3.3,5.479375 C3.30034375,4.29721875 4.2893125,3.3391875 5.50790625,3.3391875 Z M9.625,9.28125 C9.625,9.52221875 9.521875,9.625 9.28125,9.625 L1.71875,9.625 C1.47846875,9.625 1.375,9.52221875 1.375,9.28125 L1.375,4.46875 L2.23196875,4.6550625 C2.1401875,4.954125 2.09,5.270375 2.09,5.59865625 C2.09,7.42671875 3.6210625,8.91034375 5.50790625,8.91034375 C7.39578125,8.91034375 8.92615625,7.4270625 8.92615625,5.59865625 C8.92615625,5.270375 8.8763125,4.954125 8.78453125,4.6550625 L9.625,4.46875 L9.625,9.28125 Z M9.625,3.09375 C9.625,3.28384375 9.47134375,3.4375 9.28125,3.4375 L7.90625,3.4375 C7.71615625,3.4375 7.5625,3.28384375 7.5625,3.09375 L7.5625,1.71875 C7.5625,1.52865625 7.71615625,1.375 7.90625,1.375 L9.28125,1.375 C9.47134375,1.375 9.625,1.52865625 9.625,1.71875 L9.625,3.09375 Z" id="Shape"></path>
                    </g>
                </g>
            </g>
        </g>
    </g>
</svg>