<svg width="48" height="48" viewBox="0 0 48 48" xmlns="http://www.w3.org/2000/svg"><title>instagram</title><g fill="none" fill-rule="evenodd"><ellipse fill="#F5F5F5" cx="24" cy="24" rx="24" ry="24"/><path d="M29.01 23.035c-.018 2.744-2.25 4.962-5 4.96-2.755 0-4.99-2.227-4.998-4.977l-.978-.004-.02 7.957 12 .07-.033-8-.97-.005zm1.4-6.024c.432-.035.856.125 1.157.436.3.31.445.74.395 1.17V31.53c.05.412-.096.823-.397 1.11-.3.284-.72.41-1.128.338h-12.9c-.427.036-.848-.124-1.145-.435-.296-.31-.436-.74-.38-1.165V18.553c-.04-.43.116-.853.425-1.152.31-.3.737-.442 1.164-.39h12.81zm-6.398 3.994v-.007c-.533 0-1.042.212-1.417.588-.375.377-.585.887-.583 1.42 0 1.103.895 1.998 2 1.998 1.104 0 2-.895 2-2 0-1.104-.896-2-2-2zm6.002-.613v-.788c0-.16-.063-.314-.176-.428-.114-.113-.268-.177-.43-.177h-.792c-.16 0-.315.064-.428.178-.114.113-.177.267-.177.427v.79c0 .16.064.313.177.427.114.112.268.176.43.177h.792c.16 0 .314-.065.428-.178.114-.115.177-.27.176-.43z" fill="#B3B3B3"/></g></svg>