<svg xmlns="http://www.w3.org/2000/svg" width="68" height="68" viewBox="0 0 68 68"><path fill="#010101" d="M25.823 63.926l-21.89-21.67c-4.65-4.604-4.65-12.08 0-16.49L8 21.74c4.65-4.604 30.03-18.603 34.676-14l19.952 19.75c4.65 4.603-5.037 21.67-9.686 26.08l-10.46 10.164c-4.65 4.793-12.203 4.793-16.66.192z"/><path fill="#EE3424" d="M19.042 25c6.006-7.288 8.33-9.972 11.43-11.89 2.13-1.342 2.905-1.726 4.647-1.726 1.553 0 2.326.192 3.1.958.583.577.97 1.535.97 2.11 0 1.343-1.938 6.328-4.844 12.08-1.356 2.494-2.13 4.41-1.743 4.22.58-.384 5.23-3.836 8.33-7.478 3.29-3.645 5.23-7.67 6.588-9.014l2.712-2.493-4.65-4.602c-5.425-5.37-7.36-6.52-11.43-6.52-4.067 0-5.81.957-11.04 6.135-4.263 4.22-4.457 4.41-3.488 4.986.775.383.97.768.775 2.11 0 2.3-2.13 8.246-4.456 13.423-.968 2.3-1.745 3.834-1.55 3.642.193-.382 2.324-2.876 4.648-5.943z"/><path fill="#1C7698" d="M51.585 44.748c2.325-1.146 4.457-2.684 10.854-7.285l5.42-4.027-.386-1.726c-.39-2.493-1.745-4.602-6.59-9.204l-4.26-4.22-.583 1.535c-.386.96-1.744 4.22-3.098 7.48-3.68 8.438-5.423 13.614-5.423 15.915 0 1.152.19 2.11.385 2.3.58.192 1.743 0 3.68-.767z"/><path fill="#FFF" d="M50.23 11.663l-2.71 2.5c-1.55 1.345-5.232 5.38-8.524 9.225-3.292 3.65-6.2 6.92-6.393 7.304-.388.384.387-1.346 1.743-4.037 2.905-5.766 4.844-10.762 4.844-12.108 0-.576-.387-1.538-.97-2.114-.773-.77-1.353-.96-3.1-.96-1.743 0-2.517.384-4.648 1.73-2.906 1.922-5.423 4.613-11.43 11.916-2.324 3.075-4.456 5.574-4.843 5.958-.194.19.58-1.346 1.55-3.653 2.324-5.19 4.455-11.146 4.455-13.453 0-1.346 0-1.73-.775-2.114-.58-.385-.774-.577 1.163-2.5L7.807 22.042l-.582 1.73c-.387.963-1.937 4.614-3.486 8.073l-2.714 5.96c.39 1.92 1.938 3.84 3.293 5.187l5.425 5.19 6.2-8.267c3.29-4.61 6.39-8.647 6.778-8.84.388-.383-.193 1.154-1.163 3.268-.968 2.116-2.518 5.766-3.292 8.075-.968 2.305-1.938 5.764-2.324 7.688l-.776 3.46 4.068 3.84 2.13-.765c3.294-.963 5.426-3.46 13.37-15.38 3.872-5.57 6.97-10.184 7.166-10.375.195 0-.387 1.345-1.16 3.46C37.06 43.95 35.705 52.6 37.64 54.907c1.743 2.305 4.262 2.69 9.105 1.346 1.74-.578 4.066-1.54 5.618-2.115l.58-.386 11.432-11.338c2.518-2.502 3.68-5.766 3.486-9.036l-5.23 3.846c-6.395 4.805-8.524 6.148-10.85 7.303-1.742.958-3.1 1.15-3.68.577-.194-.193-.388-1.156-.388-2.31 0-2.304 1.744-7.495 5.424-15.95 1.355-3.268 2.71-6.536 3.1-7.498l.58-1.538"/><text transform="translate(78.363 48.355)" fill="#207A99" font-family="'Montserrat-Bold'" font-size="43.034" letter-spacing="-2">Muzbnb</text><path fill="#207A99" d="M246.806 8.778v9.095h-1.884V8.778h-3.388V7.115h8.66v1.663h-3.388zm7.317 9.096h-1.886V7.114h2.942l3.368 6.757 3.372-6.755h2.925v10.758h-1.884V9.47l-3.9 7.465h-1.053l-3.885-7.465v8.404z"/></svg>