<svg xmlns="http://www.w3.org/2000/svg" width="24" height="18" viewBox="0 0 24 18"><g fill="#010101"><path d="M19.403 13.63c-.096 0-.19-.036-.265-.106l-4.436-4.16c-.155-.146-.163-.39-.017-.545.146-.157.39-.165.545-.018l4.436 4.16c.155.146.163.39.018.544-.076.082-.178.123-.28.123zM4.597 13.63c-.103 0-.205-.042-.28-.124-.147-.154-.14-.398.016-.543l4.437-4.16c.156-.146.4-.14.545.016.145.154.138.398-.018.543l-4.437 4.16c-.074.07-.17.106-.263.106z"/><path d="M22.025 17.498H1.975c-1.064 0-1.928-.863-1.928-1.928V2.43C.047 1.367.912.503 1.974.503h20.05c1.064 0 1.93.864 1.93 1.927v13.14c0 1.065-.866 1.928-1.93 1.928zM1.975 1.273c-.64 0-1.157.52-1.157 1.156v13.14c0 .64.52 1.156 1.156 1.156h20.05c.64 0 1.158-.518 1.158-1.156V2.43c0-.638-.52-1.156-1.157-1.156H1.975z"/><path d="M12 10.938c-.513 0-1.025-.17-1.416-.512L.687 1.792C.527 1.652.51 1.41.65 1.248c.14-.16.383-.175.543-.037l9.898 8.634c.493.43 1.326.43 1.818 0l9.885-8.62c.16-.14.403-.124.545.037.14.162.124.405-.037.545l-9.885 8.62c-.39.343-.902.513-1.415.513z"/></g></svg>