<?xml version="1.0" encoding="UTF-8" standalone="no"?>
<svg width="147px" height="36px" viewBox="0 0 147 36" version="1.1" xmlns="http://www.w3.org/2000/svg" xmlns:xlink="http://www.w3.org/1999/xlink">
    <!-- Generator: Sketch 42 (36781) - http://www.bohemiancoding.com/sketch -->
    <title>muzbnb-logo</title>
    <desc>Created with Sketch.</desc>
    <defs>
        <rect id="path-1" x="5.94802791" y="6.47423727" width="29.1202655" height="28.8855724" rx="7.28"></rect>
    </defs>
    <g id="Home-Page" stroke="none" stroke-width="1" fill="none" fill-rule="evenodd">
        <g id="Muzbnb-home" transform="translate(-153.000000, -16.000000)">
            <g id="header" transform="translate(0.000000, -23.000000)">
                <g id="muzbnb-logo" transform="translate(141.000000, 31.000000)">
                    <g id="logo" transform="translate(8.000000, 4.000000)">
                        <g id="Muz-M" transform="translate(1.000000, 1.000000)">
                            <g id="Group" transform="translate(0.656250, 0.000000)">
                                <mask id="mask-2" fill="white">
                                    <use xlink:href="#path-1"></use>
                                </mask>
                                <use id="Rectangle-2" fill="#000000" transform="translate(20.508161, 20.917023) rotate(-45.000000) translate(-20.508161, -20.917023) " xlink:href="#path-1"></use>
                                <g id="16142353_1628532167443217_8682205278424020338_n(1)" mask="url(#mask-2)">
                                    <g transform="translate(-1.983123, -2.328000)">
                                        <g id="layer1" transform="translate(29.114914, 14.037840)">
                                            <path d="M0.377827125,15.1965189 C-0.511177875,14.2160983 0.155575875,11.6090709 2.88926625,5.12492571 C3.6449205,3.36462514 4.3561245,1.47063086 4.51170037,0.958138286 C4.64505112,0.423363429 4.86730237,0 5.00065312,0 C5.37848025,0 10.5569344,5.37003086 10.9569866,6.14991086 C11.1570127,6.550992 11.379264,7.26402514 11.4681645,7.73195314 L11.6015152,8.62324457 L9.31232737,10.4058274 C4.91175262,13.7927349 2.08916175,15.5976 1.1557065,15.5976 C0.93345525,15.5976 0.57785325,15.4193417 0.377827125,15.1965189 Z" id="Shape" fill="#1B7598" fill-rule="nonzero"></path>
                                        </g>
                                        <g id="layer2" transform="translate(11.112562, 4.456457)">
                                            <path d="M3.55271368e-15,17.0682309 C3.55271368e-15,16.9122549 0.4445025,15.7981406 1.00013063,14.6171794 C2.133612,12.1884103 3.22264313,9.06889029 3.4671195,7.642824 C3.60047025,6.72925029 3.60047025,6.68468571 3.022617,6.68468571 C2.71146525,6.68468571 2.44476375,6.550992 2.44476375,6.395016 C2.44476375,6.23904 3.62269538,4.94666743 5.0673285,3.52060114 C8.06772038,0.512492571 8.93450025,0 11.1125625,0 C13.3128499,0 14.1574046,0.512492571 17.2911473,3.63201257 C19.7581361,6.10534629 20.3804396,6.90750857 19.8025864,6.90750857 C19.3580839,6.90750857 16.9799955,9.33627771 13.6462268,13.1688309 C10.5569344,16.7117143 9.55680375,17.625288 9.55680375,16.9568194 C9.55680375,16.845408 10.0902068,15.6644469 10.7569605,14.349792 C12.2460439,11.3639657 13.335075,8.62324457 13.335075,7.91021143 C13.335075,7.08576686 12.7794469,6.68468571 11.557065,6.68468571 C10.6902851,6.68468571 10.2680078,6.84066171 9.1567515,7.59825943 C7.60099275,8.62324457 6.77866313,9.49225371 3.08929238,14.0824046 C0.555628125,17.2242069 3.55271368e-15,17.7589817 3.55271368e-15,17.0682309 Z" id="Shape" fill="#F62C0F" fill-rule="nonzero"></path>
                                        </g>
                                        <g id="layer4">
                                            <path d="M0,22.2822857 L0,0 L22.225125,0 L44.45025,0 L44.45025,22.2822857 L44.45025,44.5645714 L22.225125,44.5645714 L0,44.5645714 L0,22.2822857 Z M25.2913714,40.5889095 C25.8908497,40.2952478 27.7584551,38.6688134 29.7874585,36.7035385 L33.2459871,33.3377228 L31.8625756,33.9928145 C31.1016993,34.3542443 29.7644016,34.8737998 28.8882411,35.1448722 C26.3519868,35.9129106 25.0377459,35.7321957 24.069358,34.4446018 C23.1240268,33.2021866 23.8157325,28.5261877 25.7525085,23.4209909 C26.1444751,22.38188 26.4211574,21.5686628 26.3519868,21.6138415 C26.3058731,21.6816096 24.5996657,24.16644 22.5706622,27.1482364 C18.25903,33.5410271 17.1523008,34.8060317 15.4230366,35.3707658 L14.22408,35.7773744 L16.483652,37.9233643 C19.5041003,40.7922138 20.518602,41.3117693 22.8704014,41.1762331 C23.7235051,41.1310543 24.6688362,40.9051607 25.2913714,40.5889095 Z M13.7351273,27.5186229 C14.22408,26.2930971 15.0241845,24.332256 15.5353624,23.1735771 C16.0243151,22.0148983 16.3132418,21.212736 16.1576659,21.3909943 C16.0243151,21.5692526 14.401881,23.7306343 12.6016459,26.1594034 L9.29010225,30.5935783 L10.7125103,32.0196446 L12.1126931,33.4234286 L12.4682951,31.5962811 C12.6683213,30.571296 13.2461745,28.7441486 13.7351273,27.5186229 Z M31.6263529,28.7218663 C32.8709599,28.07568 34.0044412,27.2958 37.4048854,24.7556194 L40.2719265,22.61652 L40.1163506,21.7252286 C39.9163245,20.3437269 39.1384451,19.2518949 36.6047809,16.7339966 L34.2711427,14.4389211 L34.0044412,15.285648 C33.8488654,15.7758583 33.1154362,17.5584411 32.4042322,19.2741771 C30.4928715,23.7751989 29.5594162,26.6050491 29.5594162,27.8305749 C29.5594162,28.4099143 29.6260916,28.9669714 29.7149921,29.0338183 C29.9816936,29.323488 30.6706725,29.1897943 31.6263529,28.7218663 Z M8.03951621,17.3026614 L8.31676009,16.4366569 L7.45941781,17.3229189 C6.00696861,18.7780091 5.02440705,20.9702546 4.92188671,22.9262509 L4.81578233,24.7796136 L6.27196561,21.4747355 C7.06292805,19.6659629 7.85150113,17.7887678 8.03951621,17.3026614 Z M14.2463051,17.93724 C17.4022729,14.0155577 18.6913301,12.6563383 20.269314,11.5867886 C21.3805702,10.8514731 21.8028476,10.6954971 22.7140777,10.6954971 C23.5808576,10.6954971 23.9142345,10.8069086 24.3365119,11.2525543 C24.6476636,11.542224 24.89214,12.0324343 24.89214,12.3443863 C24.89214,13.0797017 23.825334,15.7758583 22.3140255,18.8285314 C21.6250466,20.1877509 21.2249944,21.1236069 21.4027954,20.9453486 C21.5805964,20.7670903 23.11413,19.0067897 24.8254646,17.0459486 C26.5367992,15.0851074 28.5592856,12.9014434 29.337165,12.1884103 L30.7373479,10.8737554 L28.3148092,8.422704 C25.425543,5.50372457 24.4031872,4.90210286 22.225125,4.90210286 C20.091513,4.90210286 19.1580577,5.43687771 16.4021422,8.17759886 C14.1351795,10.450392 14.046279,10.5618034 14.5130066,10.8069086 C14.9130589,11.0074491 15.0019594,11.230272 14.9575091,11.9655874 C14.9130589,13.1688309 13.8240277,16.3551977 12.5571956,19.0959189 C12.0015675,20.2991623 11.6237404,21.1681714 11.734866,21.05676 C11.8459916,20.9230663 12.979473,19.5415646 14.2463051,17.93724 Z" id="Shape" fill="#FFFFFF" fill-rule="nonzero"></path>
                                        </g>
                                    </g>
                                </g>
                            </g>
                        </g>
                        <text id="Muzbnb" font-family="Montserrat-Bold, Montserrat" font-size="24" font-weight="bold" letter-spacing="-1.13207555" fill="#1D7A99">
                            <tspan x="47" y="30">Muzbnb</tspan>
                        </text>
                        <path d="M140.94037,7.92703863 L140.94037,13 L139.888965,13 L139.888965,7.92703863 L138,7.92703863 L138,7 L142.829335,7 L142.829335,7.92703863 L140.94037,7.92703863 Z M145.021247,13 L143.969842,13 L143.969842,7 L145.609321,7 L147.489376,10.7682403 L149.369431,7 L151,7 L151,13 L149.948595,13 L149.948595,8.31330472 L147.774503,12.4763948 L147.186429,12.4763948 L145.021247,8.31330472 L145.021247,13 Z" id="TM" fill="#1D7A99"></path>
                    </g>
                </g>
            </g>
        </g>
    </g>
</svg>