<?xml version="1.0" encoding="UTF-8" standalone="no"?>
<svg width="148px" height="38px" viewBox="0 0 148 38" version="1.1" xmlns="http://www.w3.org/2000/svg" xmlns:xlink="http://www.w3.org/1999/xlink">
    <!-- Generator: Sketch 42 (36781) - http://www.bohemiancoding.com/sketch -->
    <title>muzbnb-logo</title>
    <desc>Created with Sketch.</desc>
    <defs></defs>
    <g id="Home-Page" stroke="none" stroke-width="1" fill="none" fill-rule="evenodd">
        <g id="Muzbnb-home" transform="translate(-152.000000, -15.000000)">
            <g id="header" transform="translate(0.000000, -2.000000)">
                <g id="muzbnb-logo" transform="translate(141.000000, 10.000000)">
                    <g id="logo" transform="translate(8.000000, 4.000000)">
                        <g id="Muz-M" fill-rule="nonzero">
                            <path d="M17.6982143,38.6833333 L5.49017857,26.5986111 C2.89732143,24.0319444 2.89732143,19.8611111 5.49017857,17.4013889 L7.75892857,15.1555556 C10.3517857,12.5888889 24.5044643,4.78194444 27.0973214,7.34861111 L38.225,18.3638889 C40.8178571,20.9305556 35.4160714,30.4486111 32.8232143,32.9083333 L26.9892857,38.5763889 C24.3964286,41.25 20.1830357,41.25 17.6982143,38.6833333 Z" id="Shape" fill="#000000"></path>
                            <path d="M13.9169643,16.9736111 C17.2660714,12.9097222 18.5625,11.4125 20.2910714,10.3430556 C21.4794643,9.59444444 21.9116071,9.38055556 22.8839286,9.38055556 C23.7482143,9.38055556 24.1803571,9.4875 24.6125,9.91527778 C24.9366071,10.2361111 25.1526786,10.7708333 25.1526786,11.0916667 C25.1526786,11.8402778 24.0723214,14.6208333 22.4517857,17.8291667 C21.6955357,19.2194444 21.2633929,20.2888889 21.4794643,20.1819444 C21.8035714,19.9680556 24.3964286,18.0430556 26.125,16.0111111 C27.9616071,13.9791667 29.0419643,11.7333333 29.7982143,10.9847222 L31.3107143,9.59444444 L28.7178571,7.02777778 C25.6928571,4.03333333 24.6125,3.39166667 22.34375,3.39166667 C20.075,3.39166667 19.1026786,3.92638889 16.1857143,6.81388889 C13.8089286,9.16666667 13.7008929,9.27361111 14.2410714,9.59444444 C14.6732143,9.80833333 14.78125,10.0222222 14.6732143,10.7708333 C14.6732143,12.0541667 13.4848214,15.3694444 12.1883929,18.2569444 C11.6482143,19.5402778 11.2160714,20.3958333 11.3241071,20.2888889 C11.4321429,20.075 12.6205357,18.6847222 13.9169643,16.9736111 Z" id="Shape" fill="#F62C0F"></path>
                            <path d="M32.0669643,27.9888889 C33.3633929,27.3472222 34.5517857,26.4916667 38.1169643,23.925 L41.1419643,21.6791667 L40.9258929,20.7166667 C40.7098214,19.3263889 39.9535714,18.15 37.2526786,15.5833333 L34.8758929,13.2305556 L34.5517857,14.0861111 C34.3357143,14.6208333 33.5794643,16.4388889 32.8232143,18.2569444 C30.7705357,22.9625 29.7982143,25.85 29.7982143,27.1333333 C29.7982143,27.775 29.90625,28.3097222 30.0142857,28.4166667 C30.3383929,28.5236111 30.9866071,28.4166667 32.0669643,27.9888889 Z" id="Shape" fill="#1B7598"></path>
                            <path d="M31.3107143,9.53626667 L29.7982143,10.9297222 C28.9339286,11.6800444 26.88125,13.9310111 25.0446429,16.0747889 C23.2080357,18.1113778 21.5875,19.9335889 21.4794643,20.1479667 C21.2633929,20.3623444 21.6955357,19.3976444 22.4517857,17.897 C24.0723214,14.6813333 25.1526786,11.8944222 25.1526786,11.1441 C25.1526786,10.8225333 24.9366071,10.2865889 24.6125,9.96502222 C24.1803571,9.53626667 23.85625,9.42907778 22.8839286,9.42907778 C21.9116071,9.42907778 21.4794643,9.64345556 20.2910714,10.3937778 C18.6705357,11.4656667 17.2660714,12.9663111 13.9169643,17.0394889 C12.6205357,18.7545111 11.4321429,20.1479667 11.2160714,20.3623444 C11.1080357,20.4695333 11.5401786,19.6120222 12.0803571,18.3257556 C13.3767857,15.4316556 14.5651786,12.1088 14.5651786,10.8225333 C14.5651786,10.0722111 14.5651786,9.85783333 14.1330357,9.64345556 C13.8089286,9.42907778 13.7008929,9.32188889 14.78125,8.25 L7.65089286,15.3244667 L7.32678571,16.2891667 C7.11071429,16.8251111 6.24642857,18.8617 5.38214286,20.7911 L3.86964286,24.1139556 C4.08571429,25.1858444 4.95,26.2577333 5.70625,27.0080556 L8.73125,29.9021556 L12.1883929,25.2930333 C14.025,22.7205 15.7535714,20.4695333 15.9696429,20.3623444 C16.1857143,20.1479667 15.8616071,21.0054778 15.3214286,22.1845556 C14.78125,23.3636333 13.9169643,25.4002222 13.4848214,26.6864889 C12.9446429,27.9727556 12.4044643,29.9021556 12.1883929,30.9740444 L11.75625,32.9034444 L14.025,35.0472222 L15.2133929,34.6184667 C17.05,34.0825222 18.2383929,32.6890667 22.6678571,26.0433556 C24.8285714,22.9348778 26.5571429,20.3623444 26.6651786,20.2551556 C26.7732143,20.2551556 26.4491071,21.0054778 26.0169643,22.1845556 C23.9642857,27.544 23.2080357,32.3675 24.2883929,33.6537667 C25.2607143,34.9400333 26.6651786,35.1544111 29.3660714,34.4040889 C30.3383929,34.0825222 31.6348214,33.5465778 32.4991071,33.2250111 L32.8232143,33.0106333 L39.1973214,26.6864889 C40.6017857,25.2930333 41.25,23.4708222 41.1419643,21.6486111 L38.225,23.7923889 C34.6598214,26.4721111 33.4714286,27.2224333 32.175,27.8655667 C31.2026786,28.4015111 30.4464286,28.5087 30.1223214,28.1871333 C30.0142857,28.0799444 29.90625,27.544 29.90625,26.9008667 C29.90625,25.6146 30.8785714,22.7205 32.93125,18.0041889 C33.6875,16.1819778 34.44375,14.3597667 34.6598214,13.8238222 L34.9839286,12.9663111" id="Shape" fill="#FFFFFF"></path>
                        </g>
                        <text id="Muzbnb" font-family="Montserrat-Bold, Montserrat" font-size="24" font-weight="bold" letter-spacing="-1.13207555" fill="#1D7A99">
                            <tspan x="47" y="30">Muzbnb</tspan>
                        </text>
                        <path d="M140.94037,7.92703863 L140.94037,13 L139.888965,13 L139.888965,7.92703863 L138,7.92703863 L138,7 L142.829335,7 L142.829335,7.92703863 L140.94037,7.92703863 Z M145.021247,13 L143.969842,13 L143.969842,7 L145.609321,7 L147.489376,10.7682403 L149.369431,7 L151,7 L151,13 L149.948595,13 L149.948595,8.31330472 L147.774503,12.4763948 L147.186429,12.4763948 L145.021247,8.31330472 L145.021247,13 Z" id="TM" fill="#1D7A99"></path>
                    </g>
                </g>
            </g>
        </g>
    </g>
</svg>