<?xml version="1.0" encoding="UTF-8" standalone="no"?>
<svg width="20px" height="35px" viewBox="0 0 20 35" version="1.1" xmlns="http://www.w3.org/2000/svg" xmlns:xlink="http://www.w3.org/1999/xlink">
    <!-- Generator: Sketch 42 (36781) - http://www.bohemiancoding.com/sketch -->
    <title>private-icon</title>
    <desc>Created with Sketch.</desc>
    <defs></defs>
    <g id="Single-Listing" stroke="none" stroke-width="1" fill="none" fill-rule="evenodd" opacity="0.300000012">
        <g id="Muzbnb-SingleListing-1.1" transform="translate(-404.000000, -623.000000)" fill="#000000">
            <g id="listing-header" transform="translate(133.000000, 545.000000)">
                <g id="listing-characteristics" transform="translate(221.000000, 75.000000)">
                    <g id="private-room" transform="translate(0.000000, 3.000000)">
                        <g id="private-icon" transform="translate(50.000000, 0.000000)">
                            <g id="door-hanger-do-not-disturb-privacy">
                                <g id="line-icon-177" fill-rule="nonzero">
                                    <g id="Group">
                                        <path d="M10.00125,1.25 C14.87375,1.25 18.75,5.4725 18.75,10.365 L18.75,32.455 C18.75,33.1425 18.19375,33.75 17.505,33.75 L2.5,33.75 C1.81125,33.75 1.25,33.14 1.25,32.45125 L1.25,20 C1.25,17.9325 2.9325,16.25 5,16.25 L10.00125,16.25 C13.9925,16.25 17.00625,12.555 16.08375,8.53625 C15.4925,5.9625 13.10875,3.75 10.00125,3.75 C7.46625,3.75 5.2,5.26375 4.2275,7.6075 C3.94125,8.29875 3.105,8.61 2.41625,8.19 C1.80625,7.82 1.7575,6.9975 2.0225,6.41125 C3.43625,3.27625 6.56875,1.25 10.00125,1.25 L10.00125,1.25 Z M10.00125,0 C5.94375,0 2.45125,2.42125 0.88375,5.8975 C0.34,7.10125 0.6375,8.5725 1.76625,9.25875 C3.11125,10.07625 4.805,9.48 5.3825,8.08625 C6.13375,6.275 7.9175,5 10.00125,5 C12.48,5 14.38875,6.7375 14.865,8.815 C15.6175,12.09125 13.14875,15 10.00125,15 L5,15 C2.23875,15 0,17.23875 0,20 L0,32.45125 C0,33.83125 1.11875,35 2.5,35 L17.505,35 C18.88625,35 20,33.83625 20,32.455 L20,10.365 C20,4.835 15.67375,0 10.00125,0 Z" id="Shape"></path>
                                        <g transform="translate(3.750000, 18.125000)" id="Shape">
                                            <path d="M6.25375,0.57625 L6.24875,0.57625 C2.79875,0.57625 0.0025,3.37375 0.0025,6.82625 C0.00125,10.2775 2.79875,13.07625 6.25125,13.07625 C9.70375,13.07625 12.50375,10.2775 12.5025,6.82625 C12.5025,3.375 9.70375,0.57625 6.25375,0.57625 Z M6.25,11.82625 C3.4875,11.82625 1.25125,9.59 1.25125,6.82625 C1.25125,4.0825 3.46625,1.82625 6.25125,1.82625 C9.015,1.82625 11.25125,4.06125 11.25125,6.82625 C11.2525,9.56375 9.04125,11.82625 6.25,11.82625 Z"></path>
                                            <path d="M6.25,3.07625 C4.1775,3.07625 2.50125,4.75375 2.50125,6.82625 C2.50125,8.89875 4.1775,10.57625 6.25,10.57625 L6.25125,9.32625 C5.78875,9.32625 5.36,9.1925 4.98875,8.97375 L8.3975,5.565 C8.61625,5.93625 8.75,6.365 8.75,6.8275 C8.75125,8.2075 7.63125,9.3275 6.25,9.3275 L6.25,10.5775 C8.32125,10.5775 10.00125,8.90125 10,6.8275 C10.00125,4.75875 8.33,3.07625 6.25,3.07625 Z M6.25,4.32625 C6.7125,4.32625 7.14375,4.46 7.515,4.68 L4.105,8.09 C3.885,7.7175 3.75125,7.29 3.75125,6.82625 C3.75125,5.445 4.87,4.32625 6.25,4.32625 Z"></path>
                                        </g>
                                    </g>
                                </g>
                            </g>
                        </g>
                    </g>
                </g>
            </g>
        </g>
    </g>
</svg>