<?xml version="1.0" encoding="UTF-8" standalone="no"?>
<svg width="37px" height="37px" viewBox="0 0 37 37" version="1.1" xmlns="http://www.w3.org/2000/svg" xmlns:xlink="http://www.w3.org/1999/xlink">
    <!-- Generator: Sketch 42 (36781) - http://www.bohemiancoding.com/sketch -->
    <title>reviews-icon</title>
    <desc>Created with Sketch.</desc>
    <defs></defs>
    <g id="Single-Listing" stroke="none" stroke-width="1" fill="none" fill-rule="evenodd" stroke-linecap="round" opacity="0.300000012" stroke-linejoin="round">
        <g id="Muzbnb-SingleListin" transform="translate(-377.000000, -3583.000000)" stroke="#263238">
            <g id="about-your-host" transform="translate(133.000000, 3275.000000)">
                <g id="Group-39" transform="translate(7.000000, 92.000000)">
                    <g id="reviews-icon" transform="translate(238.000000, 217.000000)">
                        <g id="Group-20">
                            <polygon id="Layer-1" stroke-width="1.5" points="4.39095041 26.6 5.7212898 29.4018805 8.78190082 29.8085023 6.54337281 31.9467467 7.10473494 35 4.39095041 33.5196037 1.6771659 35 2.23852803 31.9467467 0 29.8085023 3.06061104 29.4018805"></polygon>
                            <polygon id="Layer-2" stroke-width="1.5" points="17.3409504 26.6 18.6712898 29.4018805 21.7319008 29.8085023 19.4933728 31.9467467 20.0547349 35 17.3409504 33.5196037 14.6271659 35 15.188528 31.9467467 12.95 29.8085023 16.010611 29.4018805"></polygon>
                            <polygon id="Layer-3" stroke-width="1.5" points="30.2909504 26.6 31.6212898 29.4018805 34.6819008 29.8085023 32.4433728 31.9467467 33.0047349 35 30.2909504 33.5196037 27.5771659 35 28.138528 31.9467467 25.9 29.8085023 28.960611 29.4018805"></polygon>
                            <path d="M25.1944356,22.2982145 C27.9776849,19.9870099 29.75,16.5004781 29.75,12.6 C29.75,5.64121215 24.1087879,0 17.15,0 C10.1912122,0 4.55,5.64121215 4.55,12.6 C4.55,16.5001678 6.32203306,19.9864551 9.10490007,22.2976628 C11.2698205,20.4777846 14.3507942,19.8363234 14.5832257,19.2690278 C14.9365451,18.4066809 14.9365451,18.0050965 14.9365451,16.9714271 C14.9365451,15.9377577 13.6181138,14.1603345 13.6181138,14.1603345 C13.6181138,14.1603345 12.7753674,13.7846671 12.5384395,12.8221271 C12.379127,12.1749064 12.731269,11.4372391 12.9181948,11.3197142 C12.4185395,9.76305705 11.4206204,4.39651937 17.1301391,4.20195752 C17.1551023,4.20120526 17.1801936,4.20055251 17.2054151,4.20420924 C22.8793796,4.39762949 21.8814605,9.76416717 21.3818052,11.3208243 C21.568731,11.4383493 21.920873,12.1760166 21.7615605,12.8232372 C21.5246326,13.7857772 20.6818862,14.1614446 20.6818862,14.1614446 C20.6818862,14.1614446 19.3634549,15.9388679 19.3634549,16.9725373 C19.3634549,18.0062066 19.3634549,18.407791 19.7167743,19.2701379 C19.949182,19.8373755 23.0295493,20.4787635 25.1944356,22.2982145 L25.1944356,22.2982145 Z" id="Layer-4" stroke-width="1.5"></path>
                        </g>
                    </g>
                </g>
            </g>
        </g>
    </g>
</svg>