<svg width="42" height="42" viewBox="0 0 42 42" xmlns="http://www.w3.org/2000/svg"><title>search_button</title><g fill="none" fill-rule="evenodd"><circle fill="#F62C0F" cx="21" cy="21" r="21"/><path d="M24.64 23.108l5.36 5.01L27.99 30l-5.372-5.033c-1.058.644-2.3 1.015-3.628 1.015-3.86 0-6.99-3.13-6.99-6.99C12 15.13 15.13 12 18.99 12c3.86 0 6.99 3.13 6.99 6.99 0 1.54-.498 2.963-1.34 4.118zm-5.65-.122c2.205 0 3.994-1.79 3.994-3.995s-1.79-3.994-3.994-3.994c-2.206 0-3.994 1.79-3.994 3.995 0 2.207 1.788 3.996 3.994 3.996z" fill="#FFF"/></g></svg>