<?xml version="1.0" encoding="UTF-8" standalone="no"?>
<svg width="104px" height="96px" viewBox="0 0 104 96" version="1.1" xmlns="http://www.w3.org/2000/svg" xmlns:xlink="http://www.w3.org/1999/xlink">
    <!-- Generator: Sketch 42 (36781) - http://www.bohemiancoding.com/sketch -->
    <title>spaces icon</title>
    <desc>Created with Sketch.</desc>
    <defs></defs>
    <g id="About-Us" stroke="none" stroke-width="1" fill="none" fill-rule="evenodd" opacity="0.300000012">
        <g id="Muzbnb-About-Simple-Search" transform="translate(-263.000000, -1193.000000)" stroke-width="2" stroke="#222829">
            <g id="Group-5" transform="translate(114.000000, 1169.000000)">
                <g id="spaces-icon" transform="translate(149.000000, 25.000000)">
                    <g id="_x32_3_x5F_rent_x5F_a_x5F_house">
                        <g id="Group">
                            <polyline id="Shape" points="72.4576271 78.8983051 72.4576271 93.3898305 8.05084746 93.3898305 8.05084746 24.1525424"></polyline>
                            <path d="M72.4576271,24.1525424 L72.4576271,37.0338983" id="Shape"></path>
                            <polygon id="Shape" stroke-linecap="round" stroke-linejoin="round" points="78.8983051 27.3728814 40.2542373 8.05084746 1.61016949 27.3728814 1.61016949 19.3220339 40.2542373 0 78.8983051 19.3220339"></polygon>
                            <ellipse id="Oval" cx="40.2542373" cy="32.2033898" rx="8.05084746" ry="8.05084746"></ellipse>
                            <rect id="Rectangle-path" x="22.5423729" y="51.5254237" width="35.4237288" height="6.44067797"></rect>
                            <path d="M25.7627119,91.779661 L25.7627119,57.9661017" id="Shape"></path>
                            <path d="M54.7457627,57.9661017 L54.7457627,91.779661" id="Shape"></path>
                            <polyline id="Shape" points="20.9322034 9.66101695 20.9322034 0 14.4915254 0 14.4915254 12.8813559"></polyline>
                            <path d="M8.05084746,93.3898305 L0,93.3898305" id="Shape"></path>
                            <path d="M103.050847,93.3898305 L72.4576271,93.3898305" id="Shape"></path>
                            <path d="M49.9152542,75.6779661 L46.6949153,75.6779661" id="Shape"></path>
                            <path d="M83.7288136,93.3898305 L83.7288136,51.5254237" id="Shape"></path>
                            <ellipse id="Oval" cx="83.7288136" cy="57.9661017" rx="17.7118644" ry="17.7118644"></ellipse>
                            <path d="M83.7288136,62.7966102 L74.0677966,53.1355932" id="Shape"></path>
                            <path d="M83.7288136,69.2372881 L93.3898305,59.5762712" id="Shape"></path>
                        </g>
                    </g>
                </g>
            </g>
        </g>
    </g>
</svg>