<?xml version="1.0" encoding="UTF-8" standalone="no"?>
<svg width="12px" height="10px" viewBox="0 0 12 10" version="1.1" xmlns="http://www.w3.org/2000/svg" xmlns:xlink="http://www.w3.org/1999/xlink">
    <!-- Generator: Sketch 42 (36781) - http://www.bohemiancoding.com/sketch -->
    <title>Twitter icon</title>
    <desc>Created with Sketch.</desc>
    <defs></defs>
    <g id="About-Us" stroke="none" stroke-width="1" fill="none" fill-rule="evenodd">
        <g id="Muzbnb-About-Simple-Search" transform="translate(-291.000000, -3360.000000)" fill="#242526">
            <g id="hadi" transform="translate(229.000000, 2946.000000)">
                <g id="Social" transform="translate(62.000000, 413.000000)">
                    <g id="Twitter-icon" transform="translate(0.000000, 1.000000)">
                        <path d="M11.33,1.11 C10.91,1.3 10.46,1.42 9.99,1.48 C10.47,1.19 10.84,0.72 11.02,0.18 C10.57,0.45 10.07,0.64 9.54,0.75 C9.12,0.29 8.51,0 7.84,0 C6.56,0 5.52,1.06 5.52,2.36 C5.52,2.54 5.54,2.72 5.58,2.9 C3.65,2.8 1.93,1.86 0.79,0.43 C0.59,0.78 0.47,1.19 0.47,1.62 C0.47,2.44 0.88,3.16 1.51,3.58 C1.13,3.57 0.77,3.46 0.45,3.29 L0.45,3.31 C0.45,4.46 1.25,5.41 2.32,5.63 C2.12,5.68 1.92,5.71 1.71,5.71 C1.56,5.71 1.41,5.69 1.27,5.67 C1.56,6.6 2.42,7.28 3.44,7.3 C2.64,7.93 1.64,8.31 0.55,8.31 C0.37,8.31 0.18,8.3 0,8.28 C1.03,8.95 2.25,9.34 3.56,9.34 C7.84,9.34 10.18,5.75 10.18,2.63 C10.18,2.53 10.17,2.43 10.17,2.33 C10.62,2 11.02,1.58 11.33,1.11 L11.33,1.11 L11.33,1.11 Z"></path>
                    </g>
                </g>
            </g>
        </g>
    </g>
</svg>