<svg width="48" height="48" viewBox="0 0 48 48" xmlns="http://www.w3.org/2000/svg"><title>twitter</title><g fill="none" fill-rule="evenodd"><ellipse fill="#F5F5F5" cx="24" cy="24" rx="24" ry="24"/><path d="M34 18.93c-.672.3-1.386.5-2.118.588.774-.472 1.35-1.207 1.624-2.07-.724.435-1.517.742-2.345.908-.694-.754-1.674-1.182-2.7-1.18-.986.007-1.93.404-2.62 1.106-.694.7-1.08 1.65-1.073 2.635 0 .287.032.574.095.854-2.98-.155-5.75-1.577-7.61-3.908-.98 1.707-.483 3.882 1.142 4.994-.587-.02-1.16-.18-1.673-.468v.048c-.007 1.77 1.232 3.304 2.966 3.668-.544.15-1.114.172-1.668.065.474 1.515 1.862 2.56 3.45 2.597-1.304 1.038-2.92 1.603-4.587 1.6-.288.1-.604.08-.88-.05C17.683 31.414 19.65 32 21.658 32c2.81 0 5.504-1.126 7.48-3.126 1.973-2 3.064-4.708 3.028-7.518 0-.163 0-.324-.01-.485.725-.53 1.35-1.19 1.844-1.94z" fill="#B3B3B3"/></g></svg>