<svg width="48" height="48" viewBox="0 0 48 48" xmlns="http://www.w3.org/2000/svg"><title>youtube</title><g fill="none" fill-rule="evenodd"><ellipse fill="#F5F5F5" cx="24" cy="24" rx="24" ry="24"/><g fill-rule="nonzero" fill="#B3B3B3"><path d="M24.833 18.164c2.413 0 4.387.04 6.213.12h.052c.854 0 1.553.8 1.553 1.785v.04l.004.04c.085 1.235.126 2.52.126 3.814.004 1.294-.04 2.578-.126 3.814l-.003.04v.04c0 .502-.173.967-.495 1.313-.288.314-.665.488-1.057.488h-.06c-1.954.09-4.02.138-6.15.138h-.392.004-.404c-2.135 0-4.202-.047-6.142-.134h-.06c-.39 0-.765-.175-1.053-.487-.317-.346-.494-.81-.494-1.313v-.04l-.004-.04c-.09-1.24-.13-2.524-.122-3.807v-.007c-.004-1.283.037-2.563.122-3.803l.004-.04v-.04c0-.99.694-1.793 1.548-1.793h.052c1.83-.083 3.804-.12 6.218-.12h.669v-.006zm0-1.164h-.666c-2.13 0-4.22.03-6.27.12-1.507 0-2.73 1.32-2.73 2.956-.093 1.302-.134 2.597-.13 3.895-.004 1.3.033 2.594.126 3.892 0 1.636 1.223 2.967 2.73 2.967 2.027.094 4.093.137 6.204.137h.799c2.11 0 4.177-.043 6.206-.138 1.512 0 2.735-1.332 2.735-2.968.09-1.298.13-2.597.126-3.895.004-1.298-.037-2.592-.126-3.894 0-1.637-1.223-2.95-2.735-2.95-2.048-.094-4.136-.123-6.27-.123z" stroke="#B3B3B3"/><path d="M22.69 27.538v-7.142l5.36 3.57"/></g></g></svg>